<?xml version="1.0" encoding="iso-8859-1"?>
<!-- Generator: Adobe Illustrator 19.0.0, SVG Export Plug-In . SVG Version: 6.00 Build 0)  -->
<svg version="1.1" id="Layer_1" xmlns="http://www.w3.org/2000/svg" xmlns:xlink="http://www.w3.org/1999/xlink" x="0px" y="0px"
	 viewBox="0 0 512.001 512.001" style="enable-background:new 0 0 512.001 512.001;" xml:space="preserve">
<path style="fill:#ECD58C;" d="M497.39,144.095c-8.727-11.261-21.471-22.628-35.887-32.007c-9.335-6.075-35.051-21.191-58.91-20.886
	c-10.264-19.039-22.505-35.448-35.397-45.78c-21.774-17.45-40.431-14.053-49.612-10.471l-69.177,26.965
	c-16.477-11.365-33.211-18.254-48.98-18.254c-10.644,0-20.362,2.93-28.882,8.708l-88.348,59.911
	c-26.838,18.2-25.469,51.828-20.007,75.973l-50.508,54.143c-8.575,9.192-20.249,29.983-2.1,65.945
	c5.482,10.862,13.342,22.385,22.933,33.784c-9.142,22.06-4.609,51.586-2.416,62.517c3.38,16.861,9.226,32.908,16.459,45.182
	c13.131,22.285,28.419,28.521,38.932,29.829c1.719,0.214,3.422,0.318,5.11,0.318c31.577,0,57.308-36.404,69.534-69.69
	c8.838-2.721,14.943-7.541,18.792-11.633l31.776-33.19c2.988,0.46,5.951,0.704,8.879,0.704c10.644,0,20.362-2.928,28.882-8.706
	l88.347-59.912c12.458-8.449,18.823-20.225,21.537-32.832l42.359-16.511c4.953-1.931,11.896-5.772,17.908-13.223
	c1.475,0.04,2.96,0.07,4.459,0.07c36.465,0,79.341-11.995,87.626-43.749C513.372,181.05,513.234,164.539,497.39,144.095z"/>
<path style="fill:#C2B175;" d="M497.39,144.095c-8.727-11.261-21.471-22.628-35.887-32.007c-9.335-6.075-35.051-21.191-58.91-20.886
	c-10.264-19.039-22.505-35.448-35.397-45.78c-21.774-17.45-40.431-14.053-49.612-10.471L256,58.956v293.389l80.809-54.799
	c12.458-8.449,18.824-20.225,21.537-32.832l42.359-16.511c4.953-1.931,11.896-5.772,17.908-13.223c1.475,0.04,2.96,0.07,4.459,0.07
	c36.465,0,79.341-11.995,87.626-43.749C513.372,181.05,513.234,164.539,497.39,144.095z"/>
<path style="fill:#F8A16E;" d="M145.211,412.457c-0.001,0-0.004,0-0.006,0c-30.145-0.003-63.093-23.756-80.052-37.915
	c-26.547-22.165-48.375-49.154-58.389-72.194c-14.107-32.456-2.976-51.494,4.916-59.953l53.298-57.135
	c3.548-3.804,8.308-6.259,13.466-6.945l7.423-0.987c10.57-1.403,20.679,4.817,24.182,14.892
	c18.03,51.855,68.213,114.866,101.311,127.211c7.083,2.642,12.361,8.667,14.049,16.036c1.688,7.367-0.443,15.09-5.672,20.55
	l-40.812,42.628C172.972,404.978,162.314,412.457,145.211,412.457z"/>
<path style="fill:#9A4149;" d="M90.519,479.965C90.516,479.965,90.52,479.965,90.519,479.965c-1.682,0-3.373-0.105-5.031-0.31
	c-10.513-1.307-25.801-7.544-38.932-29.829c-7.233-12.275-13.078-28.321-16.459-45.182c-3.028-15.105-10.553-65.734,19.766-83.072
	c7.035-4.023,15.692-3.945,22.653,0.202l2.25,1.342c1.594,0.95,3.064,2.092,4.376,3.404c25.926,25.897,52.406,40.216,65.163,40.973
	c3.602,0.214,7.098,1.293,10.195,3.145c8.513,5.089,12.687,15.165,10.262,24.781C156.513,428.104,129.061,479.965,90.519,479.965z"
	/>
<path style="fill:#CD855C;" d="M428.296,163.257c-5.199-27.65-17.133-58.618-31.927-82.843
	c-19.333-31.655-41.209-48.386-63.264-48.386c-5.329,0-10.552,0.983-15.524,2.921l-69.177,26.965l0,0
	c0,0,116.943,65.682,109.941,202.798l0,0l42.359-16.511C415.862,242.294,439.603,223.402,428.296,163.257z"/>
<path style="fill:#80343B;" d="M497.487,144.221c-19.802-25.632-62.25-53.075-93.879-53.075c-0.373,0-0.728,0.031-1.098,0.037
	c11.914,22.241,21.331,48.371,25.786,72.074c7.147,38.021,0.286,59.544-9.557,71.735c1.462,0.039,2.928,0.069,4.406,0.069
	c0.001,0-0.001,0,0,0c35.119,0,79.124-11.462,87.551-43.761C513.365,181.079,513.239,164.611,497.487,144.221z"/>
<g>
</g>
<g>
</g>
<g>
</g>
<g>
</g>
<g>
</g>
<g>
</g>
<g>
</g>
<g>
</g>
<g>
</g>
<g>
</g>
<g>
</g>
<g>
</g>
<g>
</g>
<g>
</g>
<g>
</g>
</svg>
