<?xml version="1.0" encoding="iso-8859-1"?>
<!-- Generator: Adobe Illustrator 18.0.0, SVG Export Plug-In . SVG Version: 6.00 Build 0)  -->
<!DOCTYPE svg PUBLIC "-//W3C//DTD SVG 1.1//EN" "http://www.w3.org/Graphics/SVG/1.1/DTD/svg11.dtd">
<svg version="1.1" id="Capa_1" xmlns="http://www.w3.org/2000/svg" xmlns:xlink="http://www.w3.org/1999/xlink" x="0px" y="0px"
	 viewBox="0 0 297.5 297.5" style="enable-background:new 0 0 297.5 297.5;" xml:space="preserve">
<g id="XMLID_34_">
	<g>
		<polygon style="fill:#F5B543;" points="224.035,81.42 224.035,125.74 73.455,216.08 73.455,171.76 		"/>
		<path d="M244.805,45.94V251.56c0,1.61-0.37,3.2-1.1,4.641l-10.24,20.5c4.71,0.979,8.26,5.16,8.26,10.17
			c0,5.73-4.65,10.38-10.39,10.38H66.165c-5.74,0-10.39-4.65-10.39-10.38c0-5.01,3.55-9.19,8.26-10.17l-10.25-20.5
			c-0.72-1.44-1.09-3.03-1.09-4.641V45.94c0-1.61,0.37-3.2,1.09-4.641l10.25-20.5c-4.71-0.98-8.26-5.16-8.26-10.17
			c0-5.729,4.65-10.38,10.39-10.38h165.17c5.74,0,10.39,4.65,10.39,10.38c0,5.01-3.55,9.19-8.26,10.17l10.24,20.5
			C244.435,42.74,244.805,44.33,244.805,45.94z M224.035,249.11v-99.15L73.455,240.3v8.811l13.17,26.33h124.24L224.035,249.11z
			 M224.035,125.74V81.42l-150.58,90.34v44.32L224.035,125.74z M224.035,57.2V48.39l-13.17-26.33H86.625l-13.17,26.33v99.15
			L224.035,57.2z"/>
		<polygon style="fill:#CA4241;" points="224.035,149.96 224.035,249.11 210.865,275.44 86.625,275.44 73.455,249.11 73.455,240.3 
					"/>
		<polygon style="fill:#CA4241;" points="224.035,48.39 224.035,57.2 73.455,147.54 73.455,48.39 86.625,22.06 210.865,22.06 		"/>
	</g>
	<g>
	</g>
</g>
<g>
</g>
<g>
</g>
<g>
</g>
<g>
</g>
<g>
</g>
<g>
</g>
<g>
</g>
<g>
</g>
<g>
</g>
<g>
</g>
<g>
</g>
<g>
</g>
<g>
</g>
<g>
</g>
<g>
</g>
</svg>
